<?xml version="1.0" encoding="UTF-8"?>
<svg id="Livello_1" xmlns="http://www.w3.org/2000/svg" version="1.1" viewBox="0 0 2000 630">
  <!-- Generator: Adobe Illustrator 30.3.0, SVG Export Plug-In . SVG Version: 2.1.3 Build 182)  -->
  <g>
    <path d="M184.7,410.4c27.9,0,52.9-5.8,74.8-17.6,21.9-11.7,39.7-27.6,53.2-47.9,13.6-20.2,22.7-43.2,27.2-68.8h-5.6c-12.5,26.8-28.8,47.6-49,62.4s-44.5,22.1-72.8,22.1-54.4-8-77-24.1c-22.7-16.1-40.4-38.1-53.2-66-12.9-27.9-19.3-59.3-19.3-94.1s10.6-87.5,32-116.2c21.3-28.7,50.7-43.1,88.1-43.1s57.8,10.1,81.6,30.3c23.8,20.2,40.4,45.6,49.8,76.2h5.6V25.5c-12.9-6.8-29.6-12.8-50.4-17.9C249,2.5,226.8,0,203.4,0c-39.3,0-74.4,8.9-105.4,26.9-30.9,18-55,42.8-72.2,74.5C8.6,133.2,0,169.1,0,209.1s7.5,71.4,22.7,102.1c15.1,30.6,36.7,54.7,64.6,72.5,27.9,17.8,60.5,26.6,97.4,26.6"/>
    <path d="M633.1,396.7c-23.4,0-43.8-8-61.2-24.1-17.4-16.1-30.7-38.7-40-67.7-9.2-29.1-13.9-62.4-13.9-99.8s4.6-70.6,13.9-99.8c9.2-29.1,22.6-51.6,40-67.7,17.4-16.1,37.8-24.1,61.2-24.1s43.8,8,61.2,24.1c17.4,16.1,30.7,38.7,40,67.7,9.2,29.1,13.9,62.4,13.9,99.8s-4.6,70.6-13.9,99.8c-9.2,29.1-22.6,51.6-40,67.7-17.4,16.1-37.8,24.1-61.2,24.1M633.1,410.4c37.4,0,70.3-8.5,98.8-25.5s50.6-41.1,66.3-72.2c15.7-31.1,23.5-67,23.5-107.4s-7.8-76.2-23.5-107.4c-15.7-31.1-37.8-55.3-66.3-72.2C703.4,8.6,670.4.1,633.1.1s-70.4,8.5-98.8,25.5c-28.5,17-50.6,41-66.3,71.9-15.7,30.9-23.5,66.9-23.5,107.7s7.8,76.7,23.5,107.7c15.7,30.9,37.8,54.9,66.3,71.9s61.5,25.5,98.8,25.5"/>
  </g>
  <path d="M1168.7,204V27.7c-7.1-2.6-15.4-4.7-24.6-6.2s-18.1-2.3-26.3-2.3c-26.8,0-48.1,8.2-63.8,24.6-15.7,16.5-23.5,39-23.5,67.7s7.5,51.3,22.7,67.7c15.1,16.5,35.4,24.6,60.7,24.6h54.9v.2h0,0ZM955,407.4c-12.1,0-22.9-2-32.5-5.9s-16.7-9.7-21.3-17.3l3.9-4c5.3,5.3,11.2,7.9,17.6,7.9,12.5,0,22.7-6.1,30.6-18.4,7.9-12.3,16.5-30.7,25.5-55.3,10.9-29.8,23.3-53.7,37.2-71.7,13.8-18,32.5-27.5,56.4-28.6v-1.7c-18.5-1.1-36.5-5.5-53.8-13.4-17.4-7.7-31.6-19-42.8-33.8-11.2-14.8-16.7-32.6-16.7-53.8,0-35.5,14.1-61.9,42.2-79.1,28.1-17.2,62.8-25.8,104-25.8h150.8v2.8c-6,7.9-10.7,17.4-14.2,28.3-3.4,10.9-5.1,22.9-5.1,35.7v263c0,12.9,1.7,24.7,5.1,35.7s8.1,20.4,14.2,28.3v2.8h-106.6v-2.8c6-7.9,10.7-17.4,14.2-28.3,3.4-10.9,5.1-22.8,5.1-35.7v-119h-40.8c-11.4,0-20.9,3.5-28.6,10.4-7.7,7-14.1,15.8-19,26.3-4.9,10.5-10.3,24.7-16.5,42.5-7.9,23.4-15.6,42.4-23,57-7.3,14.6-18.1,27.1-32,37.7s-31.9,15.9-53.8,15.9"/>
  <path d="M1391.5,403.5h105.4v-2.8c-6-7.9-10.7-17.4-14.2-28.3-3.4-10.9-5.1-22.9-5.1-35.7V73.6c0-12.9,1.7-24.7,5.1-35.7,3.4-10.9,8.1-20.4,14.2-28.3v-2.8h-105.4v2.8c6,7.9,10.7,17.4,14.2,28.3,3.4,10.9,5.1,22.9,5.1,35.7v263c0,12.9-1.7,24.7-5.1,35.7-3.4,10.9-8.1,20.4-14.2,28.3v2.8h0Z"/>
  <path d="M1811.4,396.7c-23.4,0-43.8-8-61.2-24.1-17.4-16.1-30.7-38.7-40-67.7-9.2-29.1-13.9-62.4-13.9-99.8s4.6-70.6,13.9-99.8c9.2-29.1,22.6-51.6,40-67.7,17.4-16.1,37.8-24.1,61.2-24.1s43.8,8,61.2,24.1c17.4,16.1,30.7,38.7,40,67.7,9.2,29.1,13.9,62.4,13.9,99.8s-4.6,70.6-13.9,99.8c-9.2,29.1-22.6,51.6-40,67.7s-37.8,24.1-61.2,24.1M1811.4,410.4c37.4,0,70.3-8.5,98.8-25.5,28.5-17,50.6-41.1,66.3-72.2,15.7-31.1,23.5-67,23.5-107.4s-7.8-76.2-23.5-107.4c-15.7-31.1-37.8-55.3-66.3-72.2C1881.8,8.6,1848.8.1,1811.4.1s-70.4,8.5-98.8,25.5c-28.5,17-50.6,41-66.3,71.9-15.7,30.9-23.5,66.9-23.5,107.7s7.8,76.7,23.5,107.7c15.7,30.9,37.8,54.9,66.3,71.9,28.5,17,61.5,25.5,98.8,25.5"/>
  <g>
    <polygon points="619.7 628.8 629.1 628.8 629.1 596.5 661.3 596.5 661.3 588.4 629.1 588.4 629.1 563.5 664.6 563.5 664.6 555.2 619.7 555.2 619.7 628.8"/>
    <path d="M728.7,546c1.6,0,3-.6,4.1-1.7,1.1-1.1,1.7-2.5,1.7-4.1s-.6-2.9-1.7-4-2.5-1.7-4.1-1.7-2.9.6-4.1,1.7c-1.1,1.1-1.7,2.5-1.7,4s.6,3,1.7,4.1c1.1,1.1,2.5,1.7,4.1,1.7Z"/>
    <path d="M749.5,546c1.6,0,2.9-.6,4-1.7,1.1-1.1,1.7-2.5,1.7-4.1s-.6-2.9-1.7-4-2.5-1.7-4-1.7-3,.6-4.1,1.7c-1.1,1.1-1.7,2.5-1.7,4s.6,3,1.7,4.1c1.1,1.1,2.5,1.7,4.1,1.7Z"/>
    <path d="M758.5,603c0,3.5-.8,6.7-2.3,9.4s-3.7,4.9-6.6,6.5c-2.9,1.6-6.3,2.4-10.3,2.4s-7.5-.8-10.4-2.4c-2.9-1.6-5.1-3.7-6.7-6.5-1.6-2.8-2.3-5.9-2.3-9.4v-47.7h-9.2v48.5c0,5,1.2,9.5,3.5,13.5,2.4,3.9,5.7,7,10,9.3s9.3,3.4,15.1,3.4,10.8-1.1,15.1-3.4c4.3-2.3,7.6-5.4,9.9-9.3,2.4-3.9,3.5-8.4,3.5-13.5v-48.5h-9.2v47.7h0-.2Z"/>
    <path d="M869.7,628.8l-16.6-30.4c1-.3,2.1-.5,3-1,3.7-1.8,6.5-4.4,8.3-7.8,1.9-3.3,2.8-7.2,2.8-11.7s-.9-8.3-2.8-11.8c-1.8-3.4-4.6-6-8.3-8-3.7-1.9-8.3-2.9-14-2.9h-25.6v73.5h9.2v-28.6h17.7l15.4,28.7h10.9ZM825.9,563.4h15.9c3.8,0,6.9.6,9.3,1.8,2.4,1.2,4.1,2.9,5.3,5,1.1,2.1,1.7,4.7,1.7,7.6s-.6,5.4-1.7,7.5c-1.1,2.1-2.9,3.7-5.2,4.8-2.4,1.1-5.4,1.7-9.2,1.7h-16v-28.5h0Z"/>
  </g>
  <g>
    <path d="M160,597.3c3.7-1.8,6.5-4.4,8.3-7.8,1.9-3.3,2.8-7.2,2.8-11.7s-.9-8.3-2.8-11.8c-1.8-3.4-4.6-6-8.3-8-3.7-1.9-8.3-2.9-14-2.9h-25.6v73.5h9.2v-28.6h17.6l15.4,28.7h10.7l-16.6-30.4c1-.3,2.1-.5,3-1h.3ZM129.8,563.4h15.9c3.8,0,6.9.6,9.3,1.8,2.4,1.2,4.1,2.9,5.3,5,1.1,2.1,1.7,4.7,1.7,7.6s-.6,5.4-1.7,7.5c-1.1,2.1-2.9,3.7-5.2,4.8-2.4,1.1-5.4,1.7-9.2,1.7h-16v-28.5h-.1Z"/>
    <path d="M481.7,555.2l-18,46.6c-.4,1.1-.9,2.4-1.5,4.1-.6,1.7-1.2,3.4-1.8,5.2-.6,1.8-1.2,3.7-1.7,5.4-.2.5-.3.9-.4,1.3-.2-.5-.3-.9-.4-1.5-.6-1.8-1.2-3.6-1.8-5.4-.6-1.8-1.2-3.5-1.7-5.2-.5-1.6-1-2.9-1.4-4l-18.3-46.6h-13.1v73.5h8.8v-53.6c0-2.1,0-4.2-.1-6.3v-2.6c.4,1.3.9,2.5,1.3,3.8.8,2.3,1.6,4.5,2.3,6.6.7,2.1,1.4,4,2,5.7s1.1,3.1,1.6,4.3l16.8,42.1h7.9l16.6-42.1c.5-1.2,1-2.6,1.6-4.4.6-1.7,1.3-3.7,2-5.8s1.5-4.3,2.3-6.6c.5-1.3.9-2.6,1.3-3.9v3.3c0,2.1,0,4.2-.1,6.3v53.2h9.1v-73.5h-13.5.2Z"/>
    <path d="M363.5,603c0,3.5-.8,6.7-2.3,9.4s-3.7,4.9-6.6,6.5-6.3,2.4-10.3,2.4-7.5-.8-10.4-2.4c-2.9-1.6-5.1-3.7-6.7-6.5s-2.3-5.9-2.3-9.4v-47.7h-9.2v48.5c0,5,1.2,9.5,3.5,13.5,2.4,3.9,5.7,7,10,9.3s9.3,3.4,15.1,3.4,10.8-1.1,15.1-3.4c4.3-2.3,7.6-5.4,9.9-9.3,2.4-3.9,3.5-8.4,3.5-13.5v-48.5h-9.2v47.7h.1-.2Z"/>
    <path d="M237.7,555.2l-26.8,73.5h9.8l7.1-20.5h30.3l7.3,20.5h9.7l-27-73.5h-10.6.2ZM255.4,600.1h-24.6l5.2-15.1c.9-2.6,2-5.9,3.3-9.9,1-3.2,2.3-7.4,3.7-12.2,1.4,4.7,2.6,8.8,3.6,12.1,1.3,3.9,2.4,7.3,3.4,10l5.3,15.1h.1Z"/>
  </g>
  <g>
    <path d="M1139.6,558.9c-4.9-3.1-10.5-4.6-16.9-4.6s-12,1.5-16.9,4.6-8.8,7.5-11.7,13.2c-2.8,5.6-4.2,12.4-4.2,20s1.4,14.4,4.2,20c2.8,5.6,6.7,10,11.7,13.2s10.5,4.6,16.9,4.6,12-1.5,16.9-4.6,8.7-7.4,11.7-13.2c2.8-5.6,4.2-12.4,4.2-20s-1.4-14.4-4.2-20c-2.8-5.6-6.7-10-11.7-13.2ZM1143.2,608c-2.1,4.3-4.9,7.6-8.5,9.8-3.5,2.2-7.5,3.3-12,3.3s-8.4-1.1-12-3.4c-3.6-2.2-6.4-5.5-8.5-9.8-2.1-4.3-3.2-9.6-3.2-15.9s1.1-11.7,3.2-16c2.1-4.3,5-7.6,8.5-9.8,3.6-2.2,7.5-3.4,12-3.4s8.4,1.1,12,3.3,6.4,5.5,8.5,9.8,3.2,9.7,3.2,16-1.1,11.6-3.2,16h0Z"/>
    <path d="M1053.3,555.2h-12.2l-22,23.8c-1.8,1.9-3.6,3.9-5.3,5.9s-3.4,4-5.1,6c-.7.9-1.5,1.9-2.2,2.8v-38.5h-9.2v73.5h9.2v-24.1l10.5-11.3,25.2,35.5h10.9l-29.7-41.7,29.7-31.8v-.2h.2Z"/>
    <polygon points="1823.8 555.2 1823.8 563.5 1847.1 563.5 1847.1 628.8 1856.4 628.8 1856.4 563.5 1879.6 563.5 1879.6 555.2 1823.8 555.2"/>
    <path d="M1133.1,546c1.6,0,2.9-.6,4-1.7,1.1-1.1,1.7-2.5,1.7-4.1s-.6-2.9-1.7-4-2.5-1.7-4-1.7-3,.6-4.1,1.7c-1.1,1.1-1.7,2.5-1.7,4s.6,3,1.7,4.1,2.5,1.7,4.1,1.7Z"/>
    <path d="M1112.4,546c1.6,0,3-.6,4.1-1.7,1.1-1.1,1.7-2.5,1.7-4.1s-.6-2.9-1.7-4-2.5-1.7-4.1-1.7-2.9.6-4.1,1.7c-1.1,1.1-1.7,2.5-1.7,4s.6,3,1.7,4.1,2.5,1.7,4.1,1.7Z"/>
    <rect x="1769.8" y="555.2" width="9.2" height="73.5"/>
    <polygon points="1687 595.7 1720.6 595.7 1720.6 587.5 1687 587.5 1687 563.5 1723.1 563.5 1723.1 555.2 1677.7 555.2 1677.7 628.8 1723.5 628.8 1723.5 620.5 1687 620.5 1687 595.7"/>
    <path d="M1240.9,597.3c3.7-1.8,6.5-4.4,8.3-7.8,1.9-3.3,2.8-7.2,2.8-11.7s-.9-8.3-2.7-11.8c-1.8-3.4-4.6-6-8.3-8-3.7-1.9-8.3-2.9-14-2.9h-25.6v73.5h9.2v-28.6h17.7l15.4,28.7h10.7l-16.6-30.4c1-.3,2.1-.5,3-1h0ZM1210.8,563.4h15.9c3.8,0,6.9.6,9.3,1.8s4.1,2.9,5.2,5,1.7,4.7,1.7,7.6-.6,5.4-1.7,7.5-2.9,3.7-5.2,4.8c-2.4,1.1-5.4,1.7-9.2,1.7h-16v-28.5h0Z"/>
    <path d="M1525.5,597.3c3.7-1.8,6.5-4.4,8.3-7.8,1.9-3.3,2.8-7.2,2.8-11.7s-.9-8.3-2.8-11.8c-1.8-3.4-4.6-6-8.3-8-3.7-1.9-8.3-2.9-14-2.9h-25.6v73.5h9.2v-28.6h17.7l15.4,28.7h10.7l-16.6-30.4c1-.3,2.1-.5,3-1h.2ZM1495.3,563.4h15.9c3.8,0,6.9.6,9.3,1.8s4.1,2.9,5.3,5c1.1,2.1,1.7,4.7,1.7,7.6s-.6,5.4-1.7,7.5-2.9,3.7-5.2,4.8c-2.4,1.1-5.4,1.7-9.2,1.7h-16v-28.5h-.1Z"/>
    <polygon points="1403.2 595.7 1436.8 595.7 1436.8 587.5 1403.2 587.5 1403.2 563.5 1439.3 563.5 1439.3 555.2 1393.9 555.2 1393.9 628.8 1439.7 628.8 1439.7 620.5 1403.2 620.5 1403.2 595.7"/>
    <path d="M1337.5,558.3c-3.7-2-8.3-3-14-3h-25.4v73.5h9.2v-27.1h16.1c5.6,0,10.2-1,14-3,3.7-2,6.5-4.8,8.3-8.3s2.8-7.5,2.8-11.9-.9-8.3-2.8-11.9c-1.8-3.5-4.6-6.2-8.3-8.2h.1ZM1337.7,586.3c-1.1,2.3-2.9,4-5.2,5.3-2.4,1.3-5.4,1.9-9.2,1.9h-15.8v-30.1h15.7c3.8,0,6.9.6,9.3,1.9,2.4,1.3,4.1,3,5.3,5.3,1.1,2.2,1.7,4.8,1.7,7.7s-.6,5.5-1.7,7.8h0v.2Z"/>
    <path d="M1595.6,620.6c-1.8,0-3.5,0-5.3.2.9-1.2,1.9-2.4,2.8-3.6,1.8-2.3,3.4-4.6,5-6.9l33.5-48.1v-6.9h-51.7v8.1h36c1.8,0,3.6,0,5.4-.2-.8,1.1-1.7,2.1-2.5,3.2-1.7,2.2-3.2,4.3-4.7,6.5l-34.1,49v6.8h52.2v-8.1h-36.6Z"/>
  </g>
</svg>